<?xml version="1.0" standalone="no"?>
<!DOCTYPE svg PUBLIC "-//W3C//DTD SVG 20010904//EN"
 "http://www.w3.org/TR/2001/REC-SVG-20010904/DTD/svg10.dtd">
<svg version="1.0" xmlns="http://www.w3.org/2000/svg"
 width="1000.000000pt" height="750.000000pt" viewBox="0 0 1000.000000 750.000000"
 preserveAspectRatio="xMidYMid meet">

<g transform="translate(0.000000,750.000000) scale(0.100000,-0.100000)"
fill="#000000" stroke="none">
<path d="M5740 5943 c-94 -16 -196 -65 -371 -177 -126 -82 -167 -99 -299 -126
-82 -16 -88 -21 -67 -65 24 -51 90 -118 142 -146 l45 -24 2 -125 c0 -69 0
-237 -1 -375 -2 -197 1 -266 13 -323 37 -172 131 -283 265 -314 l53 -12 -7
-45 c-4 -25 -11 -47 -16 -49 -66 -24 -117 -62 -146 -107 -17 -27 -47 -71 -67
-97 -20 -26 -36 -53 -37 -60 -1 -30 -146 -120 -369 -230 -235 -116 -312 -166
-332 -217 -6 -14 -74 -210 -153 -435 -99 -285 -144 -401 -148 -385 -3 13 -27
204 -53 423 -39 323 -52 404 -67 423 l-18 23 -875 0 c-770 0 -874 -2 -874 -15
0 -13 103 -15 865 -15 l865 0 14 -22 c7 -13 16 -50 20 -83 7 -70 145 -1195
175 -1428 12 -87 21 -163 21 -168 0 -5 -210 -9 -531 -9 -475 0 -530 -2 -519
-15 11 -14 136 -15 1084 -15 589 0 1190 -4 1336 -10 306 -11 831 -13 945 -3
l79 6 124 121 c121 118 260 277 317 363 l28 43 -12 392 c-11 401 -29 624 -56
732 -18 70 -70 142 -151 212 -82 69 -160 119 -344 217 -91 49 -172 94 -180
100 -9 7 -60 81 -114 165 -101 157 -132 192 -171 192 -22 0 -22 2 -14 43 20
92 72 227 90 232 30 10 116 111 146 173 19 40 28 74 29 112 1 45 10 73 51 155
133 265 152 382 83 521 -50 101 -133 142 -268 131 -37 -3 -74 -1 -83 4 -9 4
-28 32 -43 62 -95 187 -242 278 -406 250z m276 -497 c69 -32 118 -78 148 -138
37 -74 34 -122 -13 -227 -56 -124 -76 -197 -62 -227 14 -32 35 -30 81 6 54 43
92 54 133 40 48 -15 72 -45 71 -88 0 -93 -128 -262 -198 -262 -8 0 -29 12 -46
26 -24 21 -34 24 -43 15 -9 -10 -5 -19 21 -42 18 -16 40 -29 50 -29 16 0 15
-10 -16 -102 -24 -71 -36 -130 -41 -193 l-6 -90 -165 -74 c-163 -74 -166 -75
-241 -73 -63 2 -80 -1 -102 -18 l-26 -21 -32 29 -32 29 21 69 c12 38 24 95 28
127 6 56 7 57 39 57 82 0 325 87 325 116 0 20 -5 18 -100 -22 -260 -110 -440
-73 -530 109 -57 118 -68 220 -53 535 l6 142 31 0 c39 0 136 26 149 39 7 7 5
17 -8 31 -17 19 -29 21 -96 18 l-77 -3 -6 44 c-3 24 -6 61 -6 83 0 37 1 38 28
32 15 -3 34 -8 42 -10 8 -3 65 -5 126 -5 122 0 248 22 404 70 118 36 133 36
196 7z m154 -1226 c12 -7 12 -12 -4 -29 -26 -29 -36 -26 -36 9 0 31 13 37 40
20z m124 -161 c43 -66 77 -121 75 -123 -33 -25 -494 -236 -516 -236 -5 0 -30
55 -57 121 -38 97 -45 123 -34 130 7 5 63 30 123 55 142 60 230 105 280 142
22 17 42 31 45 31 3 1 40 -53 84 -120z m-806 29 c-6 -18 -15 -38 -20 -45 -15
-19 3 -62 40 -92 l35 -30 -43 -103 c-58 -140 -58 -140 -108 -83 -22 25 -55 74
-73 109 l-33 64 32 36 c17 20 40 53 51 74 26 51 84 101 118 102 9 0 9 -8 1
-32z m746 -314 c-140 -312 -297 -783 -424 -1271 l-11 -43 -149 0 c-83 0 -150
4 -150 8 0 25 44 361 66 502 58 374 121 614 178 678 19 20 37 48 41 61 7 24 8
24 27 -12 10 -20 24 -37 31 -37 6 0 102 41 212 90 110 49 201 87 203 86 1 -2
-9 -30 -24 -62z m-799 -114 c10 0 26 7 35 15 15 14 18 13 29 -8 11 -21 6 -46
-43 -198 -127 -398 -234 -790 -258 -942 -8 -53 -16 -77 -25 -77 -35 0 -73 -32
-98 -85 -20 -40 -32 -54 -44 -51 -9 3 -42 8 -74 12 -47 5 -57 9 -53 23 3 9 53
183 111 386 129 447 201 693 261 883 l45 143 48 -50 c26 -28 55 -51 66 -51z
m-502 -1364 c54 -8 101 -16 103 -19 2 -2 -2 -35 -10 -73 -8 -38 -17 -97 -21
-132 l-7 -62 -336 2 -337 3 -8 53 c-12 73 -3 99 38 119 37 18 47 43 17 43 -10
0 -28 -7 -40 -16 -27 -19 -29 -18 -34 16 -2 21 4 29 43 48 25 12 72 26 105 32
77 12 363 4 487 -14z m264 -420 c24 -55 43 -103 43 -108 0 -4 -199 -7 -442 -6
l-443 3 -7 60 c-4 33 -10 81 -13 108 l-6 47 412 -2 413 -3 43 -99z"/>
<path d="M5623 5249 c-10 -10 -9 -16 4 -31 9 -10 13 -18 8 -18 -4 0 -2 -7 5
-15 19 -22 198 -22 207 1 3 9 -4 25 -18 39 -20 19 -39 25 -109 30 -63 5 -88 3
-97 -6z"/>
<path d="M5463 5068 c-6 -7 -13 -26 -17 -41 -4 -16 -25 -69 -47 -118 -55 -122
-59 -150 -24 -177 34 -27 125 -32 125 -7 0 10 -10 15 -32 15 -47 0 -76 10 -82
27 -4 8 14 61 38 116 24 56 49 120 55 142 11 41 2 66 -16 43z"/>
<path d="M5661 5054 c-33 -27 -39 -52 -19 -72 20 -20 55 -13 77 14 24 30 27
54 9 72 -18 18 -33 15 -67 -14z"/>
<path d="M5285 5046 c-28 -28 -31 -46 -13 -64 33 -33 92 4 86 55 -4 38 -39 43
-73 9z"/>
<path d="M6205 4819 c-4 -6 2 -13 14 -16 12 -3 21 -7 21 -8 0 -2 -16 -19 -35
-38 -19 -19 -35 -40 -35 -46 0 -20 24 -11 57 21 l33 32 0 -32 c0 -39 25 -44
34 -6 13 49 -19 104 -60 104 -13 0 -26 -5 -29 -11z"/>
<path d="M5567 4534 c-45 -24 -126 -29 -171 -10 -37 15 -56 14 -56 -4 0 -15
81 -40 133 -40 54 0 141 34 139 55 -1 15 -15 15 -45 -1z"/>
</g>
</svg>
